<?xml version="1.0" encoding="UTF-8"?>
<!-- Generator: Adobe Illustrator 24.0.1, SVG Export Plug-In . SVG Version: 6.00 Build 0)  -->
<svg version="1.1" xmlns="http://www.w3.org/2000/svg" xmlns:xlink="http://www.w3.org/1999/xlink" x="0px" y="0px" viewBox="0 0 293.47 293.47" style="enable-background:new 0 0 293.47 293.47;" xml:space="preserve">
<style type="text/css">
	.st0{fill:#E6142D;}
</style>
<g id="Zone_de_respiration">
</g>
<g id="Logotype">
	<path class="st0" d="M146.74,14.17c-73.1,0-132.57,59.47-132.57,132.57c0,73.1,59.47,132.57,132.56,132.57   c73.1,0,132.57-59.47,132.57-132.57C279.3,73.64,219.83,14.17,146.74,14.17z M146.73,269.8c-67.85,0-123.06-55.2-123.06-123.06   c0-67.86,55.21-123.06,123.07-123.06c67.86,0,123.06,55.21,123.06,123.06C269.8,214.59,214.59,269.8,146.73,269.8z M100.15,210.45   l14.66,3.05v3.47l-24.72,0l-4.45-11.25l7.6-18.08c0.39,0.58-4.99-8.27-4.99-8.27l10.3-13.65l10.33,16.2l-10.48,23.86L100.15,210.45   z M54.24,150.85l0.13-34.78l-5.87,0l5.54-20.52l0-0.05l17.43,19.74l0.27,28.89l-8.88,22l-4.37-15.1L54.24,150.85z M200.92,187.64   l7.6,18.08l-4.45,11.25h-19.93v-5.81l9.85-0.7l1.76-4.68l-10.48-23.86l10.34-16.2l10.29,13.65   C205.91,179.37,200.54,188.22,200.92,187.64z M249.08,125.37v15.78l-12.19-18.57l-10.03,11.14l8.06,23.33l-3.19,10.54l-12.08-35.38   l22.31-24.98l0,0.05L249.08,125.37z M223.55,188.74l16.24,11.83l-5.73,16.52h-16.81v-5.84l6.01,0.04l2.43-7.48l-18.14-12.69   l4.55-12.68l-19.97-26.91l6.85-7.19l-15.22,9.17l1.52,13.61l-30.27,0.15l-7.71,7.71c0,0-8.73-7.87-8.63-8.02   c0.09-0.14-30.29-0.26-30.29-0.26l1.48-13.51l-14.69-8.85l6.85,7.19l-19.97,26.91l4.55,12.68l-18.15,12.69l2.44,7.48l10.8,2.31   v3.49H60.09l-5.72-16.52l16.18-12.31l-5.14-14.57h-0.08l11.12-28.34V128.9l5.49-5.56l-5.64,0l5.59-10.9l-5.38,5.38V79.33l5.42,5.52   c0,0,0.09-5.56,0-5.52c-0.09,0.04,5.6,5.58,5.6,5.58H98l2.79,2.99l-2.39,2.39h5.38l16.71,5.57l-2.78,5.58H98.4l0,16.32l7.79,21.5   l4.71,4.53l2.84-26.02l27.76,0l5.34,4.94l5.14-5.14l27.75,0l3,26.74l5.25-5.04l7.78-21.5l-3.26-12.46h-10.97l-2.67-10.67   l20.25-3.56l-7.2,0.24l1.42-5.04h8.37c0,0,1.9-8.18,1.78-8.25c-0.06-0.03,13.74,2.8,13.74,2.8l8.41,8.29h-5.51l5.51,11.45h-5.25   l5.25,5.04l-0.36,10.67l-5.19-5.04l3.68,8.14l-9.9,11.14l14.98,43.18h-0.08L223.55,188.74z"/>
</g>
</svg>