<svg width="125" height="32" viewBox="0 0 125 32" fill="none" xmlns="http://www.w3.org/2000/svg">
<g clip-path="url(#clip0_1644_2)">
<path d="M2.15843 14.3166C2.15843 14.3166 4.19866 16.3043 6.85182 16.3043C8.28348 16.3043 9.5838 15.56 9.5838 14.0233C9.5838 10.6565 0.700506 11.2387 0.700506 5.45957C0.700506 2.33356 3.40183 0 7.00944 0C10.617 0 12.631 2.01396 12.631 2.01396L11.1468 4.79847C11.1468 4.79847 9.343 3.15666 6.98317 3.15666C5.3939 3.15666 4.14612 4.08483 4.14612 5.41141C4.14612 8.75195 13.0031 7.92886 13.0031 13.9488C13.0031 16.9435 10.7221 19.4653 6.79929 19.4653C2.60939 19.4653 0.302094 16.8953 0.302094 16.8953L2.15843 14.3254V14.3166Z" fill="#E6142D"/>
<path d="M20.9145 6.66794C24.093 6.66794 25.5991 8.48488 25.5991 8.48488L24.2594 10.5645C24.2594 10.5645 22.9941 9.25106 21.0808 9.25106C18.8348 9.25106 17.3769 10.9498 17.3769 13.025C17.3769 15.1003 18.8567 16.8472 21.1772 16.8472C23.2305 16.8472 24.7629 15.2929 24.7629 15.2929L25.9362 17.4426C25.9362 17.4426 24.1937 19.4259 20.9189 19.4259C16.8778 19.4259 14.2991 16.5801 14.2991 13.0426C14.2991 9.50499 16.8778 6.65919 20.9189 6.65919" fill="#E6142D"/>
<path d="M27.7269 2.17157H30.7391V4.8729H27.7269V2.17157ZM27.7269 6.95252H30.761V19.1413H27.7269V6.95252Z" fill="#E6142D"/>
<path d="M38.9613 6.66795C42.4769 6.66795 44.3639 9.22479 44.3639 12.4515C44.3639 12.8105 44.2939 13.6248 44.2939 13.6248H35.8834C36.0761 15.7526 37.7222 16.8516 39.5392 16.8516C41.5006 16.8516 43.0505 15.5118 43.0505 15.5118L44.2194 17.6878C44.2194 17.6878 42.3543 19.4347 39.3203 19.4347C35.2792 19.4347 32.7705 16.5188 32.7705 13.0513C32.7705 9.29922 35.3274 6.67232 38.9613 6.67232M41.3036 11.5408C41.2554 9.89028 40.2266 9.00589 38.8912 9.00589C37.337 9.00589 36.2599 9.96033 35.9754 11.5408H41.3036Z" fill="#E6142D"/>
<path d="M46.3954 6.95253H49.3112V8.36229C49.3112 8.81762 49.2631 9.19852 49.2631 9.19852H49.3112C49.8366 8.16965 51.1763 6.66357 53.6369 6.66357C56.3382 6.66357 57.8662 8.07334 57.8662 11.3V19.137H54.854V11.9174C54.854 10.4375 54.4731 9.43057 52.9188 9.43057C51.3646 9.43057 50.0993 10.4594 49.644 11.9174C49.4776 12.4209 49.4295 12.9681 49.4295 13.5417V19.1326H46.3954V6.95253Z" fill="#E6142D"/>
<path d="M66.3073 6.66794C69.4858 6.66794 70.9919 8.48488 70.9919 8.48488L69.6522 10.5645C69.6522 10.5645 68.3869 9.25106 66.4737 9.25106C64.2277 9.25106 62.7697 10.9498 62.7697 13.025C62.7697 15.1003 64.2495 16.8472 66.57 16.8472C68.6277 16.8472 70.1557 15.2929 70.1557 15.2929L71.3247 17.4426C71.3247 17.4426 69.5778 19.4259 66.3073 19.4259C62.2662 19.4259 59.6875 16.5801 59.6875 13.0426C59.6875 9.50499 62.2662 6.65919 66.3073 6.65919" fill="#E6142D"/>
<path d="M78.4479 6.66795C81.9636 6.66795 83.8506 9.22479 83.8506 12.4515C83.8506 12.8105 83.7805 13.6248 83.7805 13.6248H75.3701C75.5627 15.7526 77.2089 16.8516 79.0258 16.8516C80.9873 16.8516 82.5371 15.5118 82.5371 15.5118L83.7061 17.6878C83.7061 17.6878 81.841 19.4347 78.8069 19.4347C74.7659 19.4347 72.2572 16.5188 72.2572 13.0513C72.2572 9.29922 74.814 6.67232 78.4479 6.67232M80.7902 11.5408C80.7421 9.89028 79.7132 9.00589 78.3779 9.00589C76.8236 9.00589 75.751 9.96033 75.462 11.5408H80.7902Z" fill="#E6142D"/>
<path d="M86.7183 15.5118C86.7183 15.5118 88.058 16.8516 90.0413 16.8516C90.8994 16.8516 91.6437 16.4707 91.6437 15.7526C91.6437 13.9357 85.7157 14.1765 85.7157 10.2537C85.7157 7.9814 87.7471 6.66795 90.374 6.66795C93.0009 6.66795 94.4588 8.05582 94.4588 8.05582L93.3337 10.3018C93.3337 10.3018 92.2085 9.25106 90.3478 9.25106C89.5597 9.25106 88.7935 9.5838 88.7935 10.35C88.7935 12.0706 94.7215 11.8561 94.7215 15.7745C94.7215 17.806 92.9528 19.4303 90.0632 19.4303C87.0291 19.4303 85.3304 17.6396 85.3304 17.6396L86.7183 15.5118Z" fill="#E6142D"/>
<path d="M97.401 0.319607H104.664C108.189 0.319607 110.658 2.78451 110.658 6.44466C110.658 10.1048 108.193 12.6485 104.664 12.6485H100.82V19.1457H97.401V0.319607ZM104.03 9.67574C106.017 9.67574 107.186 8.4017 107.186 6.44028C107.186 4.47886 106.022 3.25735 104.082 3.25735H100.82V9.67136H104.03V9.67574Z" fill="#E6142D"/>
<path d="M117.689 6.66795C121.42 6.66795 124.405 9.32111 124.405 13.0513C124.405 16.7815 121.42 19.4347 117.711 19.4347C114.003 19.4347 110.995 16.8078 110.995 13.0513C110.995 9.29484 113.981 6.66795 117.689 6.66795ZM117.716 16.8472C119.677 16.8472 121.323 15.3192 121.323 13.0469C121.323 10.7747 119.673 9.24669 117.716 9.24669C115.759 9.24669 114.082 10.8009 114.082 13.0469C114.082 15.2929 115.732 16.8472 117.716 16.8472Z" fill="#E6142D"/>
<path d="M4.06293 30.2137H1.77316L1.22151 31.8862H0L2.29853 25.3583H3.53755L5.83609 31.8862H4.61458L4.06293 30.2137ZM2.91586 26.4923C2.91586 26.4923 2.767 27.1359 2.64003 27.5036L2.06211 29.2505H3.77398L3.19606 27.5036C3.07785 27.1359 2.93775 26.4923 2.93775 26.4923H2.92023H2.91586Z" fill="#E6142D"/>
<path d="M7.64864 26.3828H5.50772V25.3627H10.976V26.3828H8.83512V31.8905H7.64864V26.3828Z" fill="#E6142D"/>
<path d="M11.8429 25.3627H15.7482V26.3828H13.0294V28.0903H15.2272V29.1104H13.0294V30.8661H15.8971V31.8862H11.8429V25.3583V25.3627Z" fill="#E6142D"/>
<path d="M17.1274 25.3627H18.3139V30.8704H21.1378V31.8905H17.1318V25.3627H17.1274Z" fill="#E6142D"/>
<path d="M22.0835 25.3627H23.2699V31.8905H22.0835V25.3627Z" fill="#E6142D"/>
<path d="M24.9249 25.3627H28.8302V26.3828H26.1113V28.0903H28.3092V29.1104H26.1113V30.8661H28.979V31.8862H24.9249V25.3583V25.3627Z" fill="#E6142D"/>
<path d="M30.2137 25.3627H32.3196C33.0289 25.3627 33.3485 25.4196 33.6331 25.5466C34.2854 25.8399 34.7013 26.466 34.7013 27.3285C34.7013 28.1122 34.2898 28.8346 33.598 29.1104V29.1279C33.598 29.1279 33.69 29.2199 33.8169 29.4475L35.161 31.8818H33.8388L32.5429 29.4475H31.4046V31.8818H30.2181V25.354L30.2137 25.3627ZM32.4641 28.423C33.0989 28.423 33.493 28.0465 33.493 27.3942C33.493 26.7418 33.2259 26.3828 32.2977 26.3828H31.3958V28.423H32.4641Z" fill="#E6142D"/>
<path d="M38.4972 25.3627H40.7213C42.7352 25.3627 44.0487 26.5579 44.0487 28.6157C44.0487 30.6734 42.7352 31.8862 40.7213 31.8862H38.4972V25.3583V25.3627ZM40.6556 30.8704C41.9778 30.8704 42.8272 30.0867 42.8272 28.6201C42.8272 27.1534 41.9647 26.3872 40.6556 26.3872H39.6793V30.8748H40.6556V30.8704Z" fill="#E6142D"/>
<path d="M45.2877 25.3627H49.193V26.3828H46.4742V28.0903H48.672V29.1104H46.4742V30.8661H49.3419V31.8862H45.2877V25.3583V25.3627Z" fill="#E6142D"/>
<path d="M55.7165 25.2533C57.3058 25.2533 58.1245 26.1464 58.1245 26.1464L57.5553 27.0308C57.5553 27.0308 56.811 26.3434 55.7734 26.3434C54.3943 26.3434 53.5843 27.3723 53.5843 28.585C53.5843 29.7978 54.4206 30.9186 55.7822 30.9186C56.9117 30.9186 57.6779 30.0911 57.6779 30.0911L58.304 30.9449C58.304 30.9449 57.4021 32 55.7384 32C53.7419 32 52.3628 30.5202 52.3628 28.5982C52.3628 26.6762 53.7989 25.2533 55.7165 25.2533Z" fill="#E6142D"/>
<path d="M62.6384 30.2137H60.3486L59.797 31.8862H58.5754L60.874 25.3583H62.113L64.4115 31.8862H63.19L62.6384 30.2137ZM61.4913 26.4923C61.4913 26.4923 61.3424 27.1359 61.2155 27.5036L60.6376 29.2505H62.3494L61.7715 27.5036C61.6533 27.1359 61.5132 26.4923 61.5132 26.4923H61.4957H61.4913Z" fill="#E6142D"/>
<path d="M65.2521 25.3627H67.358C68.0673 25.3627 68.3869 25.4196 68.6715 25.5466C69.3238 25.8399 69.7398 26.466 69.7398 27.3285C69.7398 28.1122 69.3238 28.8346 68.6365 29.1104V29.1279C68.6365 29.1279 68.7284 29.2199 68.8554 29.4475L70.1951 31.8818H68.8729L67.5769 29.4475H66.4386V31.8818H65.2521V25.354V25.3627ZM67.5025 28.423C68.1373 28.423 68.5314 28.0465 68.5314 27.3942C68.5314 26.7418 68.2643 26.3828 67.3361 26.3828H66.4342V28.423H67.5025Z" fill="#E6142D"/>
<path d="M72.6512 26.3828H70.5103V25.3627H75.9786V26.3828H73.8377V31.8905H72.6512V26.3828Z" fill="#E6142D"/>
<path d="M79.7132 25.2533C81.6352 25.2533 83.0844 26.7156 83.0844 28.5807C83.0844 30.4458 81.6308 32 79.7132 32C77.7955 32 76.3376 30.5027 76.3376 28.5807C76.3376 26.6586 77.7912 25.2533 79.7132 25.2533ZM79.7132 30.9142C80.9084 30.9142 81.8629 29.9204 81.8629 28.5807C81.8629 27.2409 80.9084 26.339 79.7132 26.339C78.5179 26.339 77.5635 27.2935 77.5635 28.5807C77.5635 29.8678 78.5179 30.9142 79.7132 30.9142Z" fill="#E6142D"/>
<path d="M87.213 25.2533C88.811 25.2533 89.6385 26.0807 89.6385 26.0807L89.0518 26.9651C89.0518 26.9651 88.3513 26.339 87.3137 26.339C85.8514 26.339 85.0721 27.3504 85.0721 28.5807C85.0721 29.9948 86.0353 30.9142 87.2612 30.9142C88.2462 30.9142 88.8986 30.2356 88.8986 30.2356V29.4738H87.896V28.4537H89.9625V31.8906H88.9511V31.5797C88.9511 31.4396 88.9599 31.3039 88.9599 31.3039H88.9424C88.9424 31.3039 88.2638 32.0044 87.0466 32.0044C85.326 32.0044 83.8462 30.6734 83.8462 28.6201C83.8462 26.7243 85.2691 25.2576 87.2086 25.2576L87.213 25.2533Z" fill="#E6142D"/>
<path d="M91.2803 25.3627H93.3862C94.0955 25.3627 94.4151 25.4196 94.6997 25.5466C95.352 25.8399 95.768 26.466 95.768 27.3285C95.768 28.1122 95.3564 28.8346 94.6647 29.1104V29.1279C94.6647 29.1279 94.7566 29.2199 94.8836 29.4475L96.2277 31.8818H94.9055L93.6095 29.4475H92.4712V31.8818H91.2847V25.354L91.2803 25.3627ZM93.5307 28.423C94.1655 28.423 94.5596 28.0465 94.5596 27.3942C94.5596 26.7418 94.2925 26.3828 93.3643 26.3828H92.4624V28.423H93.5307Z" fill="#E6142D"/>
<path d="M100.575 30.2137H98.2854L97.7337 31.8862H96.5122L98.8107 25.3583H100.05L102.348 31.8862H101.127L100.575 30.2137ZM99.4237 26.4923C99.4237 26.4923 99.2748 27.1359 99.1479 27.5036L98.5699 29.2505H100.282L99.7039 27.5036C99.5857 27.1359 99.4456 26.4923 99.4456 26.4923H99.4281H99.4237Z" fill="#E6142D"/>
<path d="M103.185 25.3627H105.702C106.923 25.3627 107.777 26.2164 107.777 27.4861C107.777 28.7558 106.923 29.6358 105.702 29.6358H104.371V31.8862H103.185V25.3583V25.3627ZM105.483 28.6069C106.17 28.6069 106.578 28.1647 106.578 27.4861C106.578 26.8075 106.175 26.3828 105.501 26.3828H104.371V28.6069H105.483Z" fill="#E6142D"/>
<path d="M108.828 25.3627H110.014V28.1297H113V25.3627H114.187V31.8905H113V29.1498H110.014V31.8905H108.828V25.3627Z" fill="#E6142D"/>
<path d="M115.846 25.3627H117.033V31.8905H115.846V25.3627Z" fill="#E6142D"/>
<path d="M118.688 25.3627H122.593V26.3828H119.874V28.0903H122.072V29.1104H119.874V30.8661H122.742V31.8862H118.688V25.3583V25.3627Z" fill="#E6142D"/>
</g>
<defs>
<clipPath id="clip0_1644_2">
<rect width="124.405" height="32" fill="white"/>
</clipPath>
</defs>
</svg>
